#!OML:ASF X:\für Bonn\!DataBase\2005_08_12_Daniel\c3d\Daniel.ASF
:FULLY-SPECIFIED
:DEGREES
114
root -2.67733 9.78962 -2.7275 317.61 -81.4393 -341.247
lowerback 50.5924 -4.20789 0.802086
upperback 6.18018 -6.5408 -2.51518
thorax -14.1306 -3.38781 0.106741
lowerneck 6.17097 2.32305 -2.39009
upperneck -4.77541 2.75594 -2.06778
head -2.58747 1.47906 -0.363045
rclavicle -4.6615e-014 -1.15295e-014
rhumerus 66.1061 5.84917 -85.6867
rradius 12.1787
rwrist 50.7765
rhand -22.4077 14.6536
rfingers 7.12502
rthumb 4.01512 -15.2883
lclavicle -4.6615e-014 -1.15295e-014
lhumerus 66.9249 -6.53645 69.4739
lradius 14.2189
lwrist -44.4883
lhand -22.0345 3.76654
lfingers 7.12502
lthumb 4.37544 33.7013
rfemur -28.41 -57.0552 -42.5944
rtibia 133.11
rfoot -19.8361 42.2537
rtoes -5.71792
lfemur -59.2685 21.3335 -7.68426
ltibia 128.145
lfoot -20.7175 -32.6628
ltoes 4.69034
115
root -2.67313 9.98531 -2.72407 317.805 -81.4368 -341.062
lowerback 50.1356 -4.19697 0.802253
upperback 6.11373 -6.50329 -2.51242
thorax -14.1401 -3.36252 0.0828725
lowerneck 6.30433 2.37392 -2.41473
upperneck -4.77543 2.81581 -2.08576
head -2.61262 1.51053 -0.369089
rclavicle -4.57205e-015 -4.17448e-014
rhumerus 65.9557 5.65399 -86.3134
rradius 12.2196
rwrist 51.5462
rhand -22.3582 14.6209
rfingers 7.12502
rthumb 4.06289 -15.3201
lclavicle -4.57205e-015 -4.17448e-014
lhumerus 67.0386 -6.66895 69.0917
lradius 14.1742
lwrist -43.7609
lhand -21.5361 3.93645
lfingers 7.12502
lthumb 4.85669 33.8608
rfemur -31.953 -54.3943 -36.472
rtibia 131.386
rfoot -18.7261 40.1532
rtoes -5.72097
lfemur -58.1428 20.085 -8.18497
ltibia 126.383
lfoot -20.6508 -32.3905
ltoes 5.26045
116
root -2.67053 10.1782 -2.72008 317.955 -81.4154 -340.829
lowerback 49.6542 -4.18257 0.797065
upperback 6.04085 -6.46395 -2.51402
thorax -14.1509 -3.33573 0.055156
lowerneck 6.47847 2.43146 -2.33716
upperneck -4.77535 2.88612 -2.20032
head -2.64222 1.5486 -0.424748
rclavicle -6.75868e-014 2.38542e-015
rhumerus 65.7797 5.39268 -87.0699
rradius 12.247
rwrist 52.4856
rhand -22.2983 14.5302
rfingers 7.12502
rthumb 4.12072 -15.4097
lclavicle -6.75868e-014 2.38542e-015
lhumerus 67.1145 -6.70783 69.1479
lradius 14.074
lwrist -43.5902
lhand -21.0006 4.0999
lfingers 7.12502
lthumb 5.37376 34.0118
rfemur -34.4834 -51.758 -31.543
rtibia 129.678
rfoot -17.9814 38.1557
rtoes -5.84803
lfemur -57.0385 18.9317 -8.66857
ltibia 124.617
lfoot -20.5695 -32.1926
ltoes 5.77202
117
root -2.66846 10.3682 -2.71649 318.138 -81.4168 -340.642
lowerback 49.1695 -4.15747 0.785812
upperback 5.97147 -6.41161 -2.49236
thorax -14.1503 -3.30414 0.0490106
lowerneck 6.43894 2.5098 -2.32525
upperneck -4.64566 2.99074 -2.28335
head -2.58962 1.60089 -0.455551
rclavicle 3.08116e-014 -1.70955e-014
rhumerus 65.6295 5.22346 -87.5592
rradius 12.2812
rwrist 53.2331
rhand -22.2269 14.4389
rfingers 7.12502
rthumb 4.18967 -15.4996
lclavicle 3.08116e-014 -1.70955e-014
lhumerus 67.1742 -6.7007 69.3019
lradius 13.9704
lwrist -43.6197
lhand -20.541 4.23171
lfingers 7.12502
lthumb 5.81751 34.1318
rfemur -36.3168 -49.1567 -27.3974
rtibia 127.97
rfoot -17.4445 36.2488
rtoes -5.91309
lfemur -55.9351 17.9507 -9.05979
ltibia 122.863
lfoot -20.5232 -32.0642
ltoes 6.09951
118
root -2.66793 10.5543 -2.71299 318.379 -81.4106 -340.542
lowerback 47.808 -4.13754 0.83062
upperback 6.92765 -6.35688 -2.58591
thorax -14.2763 -3.28076 0.00705459
lowerneck 6.17147 2.58833 -2.24555
upperneck -4.37421 3.1124 -2.38294
head -2.44564 1.65761 -0.497916
rclavicle -7.05686e-015 4.17448e-015
rhumerus 65.4263 4.98997 -88.2095
rradius 12.3529
rwrist 54.094
rhand -22.1362 14.3044
rfingers 7.12502
rthumb 4.27725 -15.6324
lclavicle -7.05686e-015 4.17448e-015
lhumerus 67.257 -6.67544 69.5778
lradius 13.8104
lwrist -43.8214
lhand -20.1347 4.34907
lfingers 7.12502
lthumb 6.20982 34.2381
rfemur -37.4338 -46.7402 -24.0813
rtibia 126.249
rfoot -17.0667 34.5716
rtoes -6.09258
lfemur -54.8338 17.0365 -9.38678
ltibia 121.101
lfoot -20.2553 -32.0859
ltoes 6.76678
119
root -2.66872 10.7379 -2.70941 318.505 -81.4043 -340.32
lowerback 47.3328 -4.11806 0.814281
upperback 6.8339 -6.31768 -2.58124
thorax -14.2625 -3.25521 -0.0147118
lowerneck 5.86695 2.68843 -2.18108
upperneck -4.06375 3.2648 -2.46549
head -2.2831 1.72844 -0.531494
rclavicle 4.87022e-015 -8.94531e-015
rhumerus 65.2207 4.76538 -88.8813
rradius 12.384
rwrist 54.9708
rhand -22.1092 14.1566
rfingers 7.12502
rthumb 4.30329 -15.7797
lclavicle 4.87022e-015 -8.94531e-015
lhumerus 67.2937 -6.61103 69.9263
lradius 13.6741
lwrist -44.1699
lhand -19.7607 4.47156
lfingers 7.12502
lthumb 6.5708 34.3496
rfemur -38.1627 -44.4747 -21.2713
rtibia 124.523
rfoot -16.842 32.9747
rtoes -6.21879
lfemur -53.769 16.2186 -9.71109
ltibia 119.357
lfoot -19.9411 -32.1068
ltoes 7.37872
120
root -2.67023 10.923 -2.70674 318.639 -81.3981 -340.133
lowerback 46.8738 -4.09947 0.806135
upperback 6.74365 -6.27758 -2.5823
thorax -14.2477 -3.23007 -0.0469447
lowerneck 5.70759 2.80214 -2.08833
upperneck -3.86325 3.42895 -2.56753
head -2.18351 1.80765 -0.579833
rclavicle 2.68359e-014 4.27387e-014
rhumerus 65.0395 4.57457 -89.4128
rradius 12.3956
rwrist 55.6672
rhand -22.0833 13.9528
rfingers 7.12502
rthumb 4.32838 -15.9829
lclavicle 2.68359e-014 4.27387e-014
lhumerus 67.3007 -6.49866 70.4599
lradius 13.5579
lwrist -44.6881
lhand -19.3876 4.51893
lfingers 7.12502
lthumb 6.93098 34.3855
rfemur -38.5223 -42.3286 -18.8436
rtibia 122.746
rfoot -16.7501 31.4722
rtoes -6.44222
lfemur -52.658 15.512 -10.039
ltibia 117.587
lfoot -19.837 -32.0079
ltoes 7.84613
121
root -2.6728 11.1084 -2.70407 318.859 -81.3956 -340.039
lowerback 46.4189 -4.09486 0.822454
upperback 6.63559 -6.24338 -2.59411
thorax -14.2563 -3.20724 -0.0995361
lowerneck 5.38379 2.93717 -1.98236
upperneck -3.5211 3.63193 -2.66327
head -2.0073 1.90264 -0.62368
rclavicle -3.17062e-014 8.94531e-015
rhumerus 64.7884 4.34394 -90.0675
rradius 12.4467
rwrist 56.5004
rhand -22.0476 13.7386
rfingers 7.12502
rthumb 4.36284 -16.1965
lclavicle -3.17062e-014 8.94531e-015
lhumerus 67.2227 -6.44478 70.9022
lradius 13.5262
lwrist -45.0312
lhand -19.0296 4.60076
lfingers 7.12502
lthumb 7.27658 34.4556
rfemur -38.6001 -40.3389 -16.734
rtibia 120.95
rfoot -16.7198 30.0796
rtoes -6.55283
lfemur -51.55 14.8646 -10.348
ltibia 115.804
lfoot -19.7286 -31.8841
ltoes 8.18533
122
root -2.6768 11.2925 -2.7014 319.008 -81.3895 -339.873
lowerback 45.9163 -4.07067 0.815452
upperback 6.55012 -6.19488 -2.58941
thorax -14.2178 -3.17938 -0.132556
lowerneck 4.85791 3.09195 -1.93437
upperneck -3.07073 3.86762 -2.72641
head -1.76232 2.01078 -0.641405
rclavicle -7.16619e-014 -2.18663e-015
rhumerus 64.5706 4.13507 -90.5932
rradius 12.5117
rwrist 57.1706
rhand -21.9294 13.5529
rfingers 7.12502
rthumb 4.47697 -16.3798
lclavicle -7.16619e-014 -2.18663e-015
lhumerus 67.1891 -6.36971 71.451
lradius 13.4553
lwrist -45.3702
lhand -18.6948 4.66689
lfingers 7.12502
lthumb 7.59977 34.5103
rfemur -38.4863 -38.5365 -14.9295
rtibia 119.15
rfoot -16.8181 28.8285
rtoes -6.75741
lfemur -50.4545 14.2786 -10.6575
ltibia 114.015
lfoot -19.7177 -31.7502
ltoes 8.43783
123
root -2.6811 11.4753 -2.69944 319.164 -81.3813 -339.731
lowerback 45.4042 -4.05059 0.821531
upperback 6.47166 -6.14883 -2.60209
thorax -14.1688 -3.15378 -0.190783
lowerneck 4.40089 3.26893 -1.79362
upperneck -2.67362 4.13298 -2.84459
head -1.54604 2.13496 -0.693071
rclavicle 2.92213e-014 5.56597e-015
rhumerus 64.3242 3.88555 -91.1788
rradius 12.6021
rwrist 57.9138
rhand -21.8038 13.351
rfingers 7.12502
rthumb 4.59821 -16.5791
lclavicle 2.92213e-014 5.56597e-015
lhumerus 67.1544 -6.3182 71.9383
lradius 13.3485
lwrist -45.6383
lhand -18.4261 4.6902
lfingers 7.12502
lthumb 7.85909 34.5241
rfemur -38.1937 -36.8748 -13.353
rtibia 117.342
rfoot -16.8846 27.7132
rtoes -6.81702
lfemur -49.351 13.7316 -10.939
ltibia 112.212
lfoot -19.6739 -31.6283
ltoes 8.67772
124
root -2.68916 11.6573 -2.69692 319.396 -81.3723 -339.667
lowerback 44.8543 -4.04008 0.851308
upperback 6.39821 -6.10445 -2.6225
thorax -14.1028 -3.13034 -0.270628
lowerneck 3.9387 3.47508 -1.62265
upperneck -2.23701 4.43872 -2.98333
head -1.31648 2.27851 -0.75415
rclavicle 2.33572e-014 2.60408e-014
rhumerus 64.0549 3.59064 -91.8325
rradius 12.7054
rwrist 58.695
rhand -21.623 13.185
rfingers 7.12502
rthumb 4.77278 -16.7412
lclavicle 2.33572e-014 2.60408e-014
lhumerus 67.0929 -6.30036 72.3911
lradius 13.2537
lwrist -45.7828
lhand -18.1613 4.74937
lfingers 7.12502
lthumb 8.11468 34.5736
rfemur -37.7552 -35.3794 -11.9674
rtibia 115.534
rfoot -17.1193 26.6409
rtoes -7.02855
lfemur -48.2379 13.2213 -11.2107
ltibia 110.396
lfoot -19.7424 -31.4669
ltoes 8.84213
